<svg xmlns="http://www.w3.org/2000/svg" viewBox="0 0 120 120">
  <defs><clipPath id="circle"><circle cx="60" cy="60" r="60"/></clipPath></defs>
  <g clip-path="url(#circle)">
    <rect width="120" height="120" fill="#F59E0B" opacity="0.12"/>
    <rect x="48" y="78" width="24" height="16" rx="4" fill="#F5C99A"/>
    <ellipse cx="60" cy="52" rx="30" ry="32" fill="#F5C99A"/>
    <path d="M28 42 Q28 16 60 14 Q92 16 92 42 Q90 52 88 60 L32 60 Q30 52 28 42Z" fill="#D4A040"/>
    <ellipse cx="48" cy="52" rx="4" ry="3.5" fill="white"/>
    <ellipse cx="72" cy="52" rx="4" ry="3.5" fill="white"/>
    <circle cx="48" cy="52" r="2.5" fill="#4A90D9"/>
    <circle cx="72" cy="52" r="2.5" fill="#4A90D9"/>
    <circle cx="49" cy="51" r="0.8" fill="white"/>
    <circle cx="73" cy="51" r="0.8" fill="white"/>
    <line x1="42" y1="44" x2="54" y2="43" stroke="#B8860B" stroke-width="2" stroke-linecap="round"/>
    <line x1="66" y1="43" x2="78" y2="44" stroke="#B8860B" stroke-width="2" stroke-linecap="round"/>
    <ellipse cx="60" cy="58" rx="2.5" ry="2" fill="#E8C4A0" opacity="0.6"/>
    <path d="M50 64 Q60 74 72 64" stroke="#B4564A" stroke-width="2" fill="none" stroke-linecap="round"/>
    <path d="M52 64 Q60 69 68 64" fill="white" opacity="0.5"/>
  </g>
</svg>