<svg xmlns="http://www.w3.org/2000/svg" viewBox="0 0 120 120">
  <defs><clipPath id="circle"><circle cx="60" cy="60" r="60"/></clipPath></defs>
  <g clip-path="url(#circle)">
    <rect width="120" height="120" fill="#F59E0B" opacity="0.12"/>
    <rect x="48" y="78" width="24" height="16" rx="4" fill="#F2D1B0"/>
    <ellipse cx="60" cy="52" rx="30" ry="32" fill="#F2D1B0"/>
    <path d="M30 42 Q30 18 60 16 Q90 18 90 42 Q88 34 75 30 Q60 28 45 30 Q32 34 30 42Z" fill="#4A3728"/>
    <ellipse cx="78" cy="30" rx="12" ry="8" fill="#4A3728" transform="rotate(-20 78 30)"/>
    <path d="M82 26 Q88 20 94 30 Q98 44 90 56 Q86 48 88 38 Q86 28 82 26Z" fill="#4A3728"/>
    <ellipse cx="48" cy="52" rx="4" ry="3.5" fill="white"/>
    <ellipse cx="72" cy="52" rx="4" ry="3.5" fill="white"/>
    <circle cx="48" cy="52" r="2.5" fill="#3B2314"/>
    <circle cx="72" cy="52" r="2.5" fill="#3B2314"/>
    <circle cx="49" cy="51" r="0.8" fill="white"/>
    <circle cx="73" cy="51" r="0.8" fill="white"/>
    <line x1="42" y1="44" x2="54" y2="43" stroke="#3B2314" stroke-width="2" stroke-linecap="round"/>
    <line x1="66" y1="43" x2="78" y2="44" stroke="#3B2314" stroke-width="2" stroke-linecap="round"/>
    <path d="M60 55 Q58 59 56 58" stroke="#C4935A" stroke-width="1" fill="none" opacity="0.5"/>
    <path d="M50 64 Q60 74 72 64" stroke="#B4564A" stroke-width="2" fill="none" stroke-linecap="round"/>
    <path d="M52 64 Q60 69 68 64" fill="white" opacity="0.5"/>
  </g>
</svg>