<svg xmlns="http://www.w3.org/2000/svg" viewBox="0 0 120 120">
  <defs><clipPath id="circle"><circle cx="60" cy="60" r="60"/></clipPath></defs>
  <g clip-path="url(#circle)">
    <rect width="120" height="120" fill="#14B8A6" opacity="0.12"/>
    <rect x="48" y="78" width="24" height="16" rx="4" fill="#C69C6D"/>
    <ellipse cx="60" cy="52" rx="30" ry="32" fill="#C69C6D"/>
    <path d="M30 42 Q30 18 60 16 Q90 18 90 42 Q88 34 75 30 Q60 28 45 30 Q32 34 30 42Z" fill="#1A1A1A"/>
    <ellipse cx="48" cy="52" rx="4" ry="3.5" fill="white"/>
    <ellipse cx="72" cy="52" rx="4" ry="3.5" fill="white"/>
    <circle cx="48" cy="52" r="2.5" fill="#2C1A0E"/>
    <circle cx="72" cy="52" r="2.5" fill="#2C1A0E"/>
    <circle cx="49" cy="51" r="0.8" fill="white"/>
    <circle cx="73" cy="51" r="0.8" fill="white"/>
    <line x1="42" y1="44" x2="54" y2="43" stroke="#1A1A1A" stroke-width="2" stroke-linecap="round"/>
    <line x1="66" y1="43" x2="78" y2="44" stroke="#1A1A1A" stroke-width="2" stroke-linecap="round"/>
    <path d="M60 55 Q58 59 56 58" stroke="#8A6840" stroke-width="1" fill="none" opacity="0.5"/>
    <path d="M50 64 Q60 72 70 64" stroke="#B4564A" stroke-width="2" fill="none" stroke-linecap="round"/>
  </g>
</svg>