<svg xmlns="http://www.w3.org/2000/svg" viewBox="0 0 120 120">
  <defs><clipPath id="circle"><circle cx="60" cy="60" r="60"/></clipPath></defs>
  <g clip-path="url(#circle)">
    <rect width="120" height="120" fill="#6366F1" opacity="0.12"/>
    <rect x="48" y="78" width="24" height="16" rx="4" fill="#D2A679"/>
    <ellipse cx="60" cy="52" rx="30" ry="32" fill="#D2A679"/>
    <path d="M32 40 Q32 20 60 18 Q88 20 88 40 Q86 32 72 30 Q60 28 48 30 Q34 32 32 40Z" fill="#1A1A1A" opacity="0.85"/>
    <ellipse cx="48" cy="52" rx="4" ry="2.5" fill="white"/>
    <ellipse cx="72" cy="52" rx="4" ry="2.5" fill="white"/>
    <circle cx="48" cy="52" r="2" fill="#2C1A0E"/>
    <circle cx="72" cy="52" r="2" fill="#2C1A0E"/>
    <circle cx="49" cy="51" r="0.7" fill="white"/>
    <circle cx="73" cy="51" r="0.7" fill="white"/>
    <line x1="42" y1="44" x2="54" y2="43" stroke="#1A1A1A" stroke-width="1.5" stroke-linecap="round"/>
    <line x1="66" y1="43" x2="78" y2="44" stroke="#1A1A1A" stroke-width="1.5" stroke-linecap="round"/>
    <path d="M60 55 Q58 59 56 58" stroke="#8A6840" stroke-width="1" fill="none" opacity="0.5"/>
    <line x1="50" y1="65" x2="70" y2="65" stroke="#B4564A" stroke-width="2" stroke-linecap="round"/>
  </g>
</svg>