<svg xmlns="http://www.w3.org/2000/svg" fill="none" viewBox="0 0 64 64"><circle cx="32" cy="32" r="30" fill="#F1F5F9"/><circle cx="32" cy="32" r="30" stroke="#CBD5E1" stroke-width="1.5"/><g clip-path="url(#a)"><clipPath id="a"><circle cx="32" cy="32" r="29"/></clipPath><path fill="#F59E0B" d="M12 56c0-10 8-14 20-14s20 4 20 14Z"/><path fill="#FFD8B3" d="M28 38h8v8h-8z"/><circle cx="32" cy="27" r="13" fill="#FFD8B3"/><path fill="#5C4033" d="M16 24c0-12 32-12 32 0 0-6-32-6-32 0M44 24q12 10 4 20c-4 0-6-8-4-20"/><circle cx="28" cy="26" r="1.5" fill="#1E293B"/><circle cx="36" cy="26" r="1.5" fill="#1E293B"/><path stroke="#1E293B" stroke-linecap="round" stroke-width="1.5" d="M29 32q3 3 6 0"/></g></svg>