<svg xmlns="http://www.w3.org/2000/svg" viewBox="0 0 120 120" width="120" height="120">
  <defs>
    <linearGradient id="bodyGrad" x1="0" y1="1" x2="0" y2="0">
      <stop offset="0%" stop-color="#2563EB"/>
      <stop offset="100%" stop-color="#7C3AED"/>
    </linearGradient>
  </defs>
  <!-- Confetti dots -->
  <circle cx="12" cy="18" r="3" fill="#2563EB"/>
  <circle cx="108" cy="14" r="2.5" fill="#7C3AED"/>
  <circle cx="22" cy="8" r="2" fill="#06B6D4"/>
  <circle cx="96" cy="6" r="3" fill="#06B6D4"/>
  <circle cx="8" cy="40" r="2" fill="#7C3AED"/>
  <circle cx="112" cy="42" r="2.5" fill="#2563EB"/>
  <circle cx="18" cy="100" r="2" fill="#06B6D4"/>
  <circle cx="104" cy="104" r="3" fill="#7C3AED"/>
  <circle cx="36" cy="4" r="2.5" fill="#2563EB"/>
  <circle cx="84" cy="4" r="2" fill="#06B6D4"/>
  <!-- Sparkle -->
  <path d="M14 60 L10 56 L6 60 L10 64 Z" fill="#06B6D4"/>
  <path d="M106 64 L102 60 L98 64 L102 68 Z" fill="#06B6D4"/>
  <!-- Body/Head -->
  <circle cx="60" cy="62" r="38" fill="url(#bodyGrad)"/>
  <!-- Headphones band -->
  <path d="M28 52 Q60 18 92 52" fill="none" stroke="#7C3AED" stroke-width="5" stroke-linecap="round"/>
  <!-- Left headphone cup -->
  <ellipse cx="28" cy="54" rx="8" ry="10" fill="#7C3AED"/>
  <!-- Right headphone cup -->
  <ellipse cx="92" cy="54" rx="8" ry="10" fill="#7C3AED"/>
  <!-- Left eye (happy squint) -->
  <path d="M42 58 Q46 54 50 58" fill="none" stroke="#1E293B" stroke-width="3" stroke-linecap="round"/>
  <!-- Right eye (happy squint) -->
  <path d="M70 58 Q74 54 78 58" fill="none" stroke="#1E293B" stroke-width="3" stroke-linecap="round"/>
  <!-- Big grin -->
  <path d="M44 70 Q60 86 76 70" fill="#1E293B"/>
  <path d="M48 72 Q60 80 72 72" fill="#fff"/>
  <!-- Left arm up -->
  <path d="M24 70 Q12 50 16 36" fill="none" stroke="url(#bodyGrad)" stroke-width="6" stroke-linecap="round"/>
  <circle cx="16" cy="34" r="5" fill="#2563EB"/>
  <!-- Right arm up -->
  <path d="M96 70 Q108 50 104 36" fill="none" stroke="url(#bodyGrad)" stroke-width="6" stroke-linecap="round"/>
  <circle cx="104" cy="34" r="5" fill="#2563EB"/>
</svg>
