<svg xmlns="http://www.w3.org/2000/svg" viewBox="0 0 32 32" fill="none">
  <defs>
    <linearGradient id="favGrad" x1="0%" y1="0%" x2="100%" y2="100%">
      <stop offset="0%" stop-color="#2563EB"/>
      <stop offset="50%" stop-color="#7C3AED"/>
      <stop offset="100%" stop-color="#14B8A6"/>
    </linearGradient>
    <linearGradient id="favBrainGrad" x1="0%" y1="0%" x2="100%" y2="100%">
      <stop offset="0%" stop-color="#2563EB"/>
      <stop offset="100%" stop-color="#7C3AED"/>
    </linearGradient>
  </defs>
  
  <!-- Background -->
  <rect width="32" height="32" rx="8" fill="url(#favGrad)"/>
  
  <!-- Brain -->
  <path d="M12 10 C12 7, 14 5, 16 5 C18 5, 20 7, 20 10 C21 10, 22 11, 22 12 C23 12, 24 13, 24 14 C24 16, 23 17, 22 17 C22 19, 21 20, 19 21 C18 22, 14 22, 13 21 C11 20, 10 19, 10 17 C9 17, 8 16, 8 14 C8 13, 9 12, 10 12 C10 11, 11 10, 12 10Z" 
        fill="white" opacity="0.95"/>
  
  <!-- Brain details -->
  <path d="M16 6 L16 22" stroke="rgba(37,99,235,0.3)" stroke-width="0.8"/>
  <path d="M12 11 Q16 13, 20 11" stroke="rgba(37,99,235,0.4)" stroke-width="0.8" fill="none"/>
  <path d="M11 15 Q16 17, 21 15" stroke="rgba(37,99,235,0.4)" stroke-width="0.8" fill="none"/>
  <path d="M12 18 Q16 20, 20 18" stroke="rgba(37,99,235,0.4)" stroke-width="0.8" fill="none"/>
  
  <!-- Speech bubble -->
  <path d="M20 19 L24 23 L21 20" fill="white" opacity="0.9"/>
</svg>