<svg xmlns="http://www.w3.org/2000/svg" viewBox="0 0 64 64" width="64" height="64">
  <defs>
    <linearGradient id="gold" x1="0%" y1="0%" x2="100%" y2="100%">
      <stop offset="0%" style="stop-color:#FFD700"/>
      <stop offset="100%" style="stop-color:#B8860B"/>
    </linearGradient>
  </defs>
  <path d="M32 4 L56 16 L56 36 C56 52 44 60 32 62 C20 60 8 52 8 36 L8 16 Z" fill="url(#gold)" stroke="#8B6914" stroke-width="1.5"/>
  <path d="M32 10 L50 20 L50 34 C50 46 42 54 32 56 C22 54 14 46 14 34 L14 20 Z" fill="none" stroke="#FFE44D" stroke-width="0.8" opacity="0.6"/>
  <polygon points="32,14 34.5,20 41,20 36,24 38,30 32,26 26,30 28,24 23,20 29.5,20" fill="#FFE87C" stroke="#DAA520" stroke-width="0.5"/>
  <line x1="16" y1="28" x2="24" y2="28" stroke="#FFE87C" stroke-width="0.8" opacity="0.5"/>
  <line x1="40" y1="28" x2="48" y2="28" stroke="#FFE87C" stroke-width="0.8" opacity="0.5"/>
  <line x1="18" y1="34" x2="24" y2="34" stroke="#FFE87C" stroke-width="0.8" opacity="0.5"/>
  <line x1="40" y1="34" x2="46" y2="34" stroke="#FFE87C" stroke-width="0.8" opacity="0.5"/>
  <text x="32" y="50" text-anchor="middle" font-family="Arial,sans-serif" font-size="7" font-weight="bold" fill="#FFF8DC">31-40</text>
</svg>