<svg xmlns="http://www.w3.org/2000/svg" viewBox="0 0 64 64" width="64" height="64">
  <defs>
    <linearGradient id="sapphire" x1="0%" y1="0%" x2="100%" y2="100%">
      <stop offset="0%" style="stop-color:#2563EB"/>
      <stop offset="100%" style="stop-color:#1E40AF"/>
    </linearGradient>
    <linearGradient id="sapphireGem" x1="0%" y1="0%" x2="100%" y2="100%">
      <stop offset="0%" style="stop-color:#60A5FA"/>
      <stop offset="100%" style="stop-color:#1E3A8A"/>
    </linearGradient>
  </defs>
  <path d="M32 4 L56 16 L56 36 C56 52 44 60 32 62 C20 60 8 52 8 36 L8 16 Z" fill="url(#sapphire)" stroke="#1E3A8A" stroke-width="1.5"/>
  <path d="M32 10 L50 20 L50 34 C50 46 42 54 32 56 C22 54 14 46 14 34 L14 20 Z" fill="none" stroke="#93C5FD" stroke-width="0.8" opacity="0.6"/>
  <path d="M18 16 L32 8 L46 16" fill="none" stroke="#93C5FD" stroke-width="0.8" opacity="0.5"/>
  <path d="M14 22 L32 12 L50 22" fill="none" stroke="#93C5FD" stroke-width="0.8" opacity="0.4"/>
  <polygon points="32,14 35,20 42,20 37,25 39,32 32,28 25,32 27,25 22,20 29,20" fill="url(#sapphireGem)" stroke="#1E40AF" stroke-width="0.5"/>
  <polygon points="32,18 34,22 38,22 35,25 36,29 32,26 28,29 29,25 26,22 30,22" fill="#BFDBFE" opacity="0.4"/>
  <circle cx="18" cy="26" r="1.5" fill="#93C5FD" opacity="0.5"/>
  <circle cx="46" cy="26" r="1.5" fill="#93C5FD" opacity="0.5"/>
  <path d="M20 32 L26 30" stroke="#93C5FD" stroke-width="0.6" opacity="0.4"/>
  <path d="M44 32 L38 30" stroke="#93C5FD" stroke-width="0.6" opacity="0.4"/>
  <text x="32" y="50" text-anchor="middle" font-family="Arial,sans-serif" font-size="7" font-weight="bold" fill="#EFF6FF">61-70</text>
</svg>