<svg xmlns="http://www.w3.org/2000/svg" viewBox="0 0 64 64" width="64" height="64">
  <defs>
    <linearGradient id="legendary" x1="0%" y1="0%" x2="100%" y2="100%">
      <stop offset="0%" style="stop-color:#F59E0B"/>
      <stop offset="50%" style="stop-color:#D97706"/>
      <stop offset="100%" style="stop-color:#7C3AED"/>
    </linearGradient>
    <linearGradient id="legendaryGem" x1="0%" y1="0%" x2="100%" y2="100%">
      <stop offset="0%" style="stop-color:#FDE68A"/>
      <stop offset="50%" style="stop-color:#F59E0B"/>
      <stop offset="100%" style="stop-color:#6D28D9"/>
    </linearGradient>
    <linearGradient id="crownGold" x1="0%" y1="0%" x2="0%" y2="100%">
      <stop offset="0%" style="stop-color:#FDE68A"/>
      <stop offset="100%" style="stop-color:#B45309"/>
    </linearGradient>
  </defs>
  <path d="M32 2 L58 14 L58 37 C58 53 45 62 32 63 C19 62 6 53 6 37 L6 14 Z" fill="url(#legendary)" stroke="#9333EA" stroke-width="1.5"/>
  <path d="M32 7 L52 17 L52 35 C52 48 43 57 32 58 C21 57 12 48 12 35 L12 17 Z" fill="none" stroke="#FDE68A" stroke-width="1" opacity="0.7"/>
  <path d="M32 11 L48 19 L48 33 C48 45 40 52 32 54 C24 52 16 45 16 33 L16 19 Z" fill="none" stroke="#FBBF24" stroke-width="0.8" opacity="0.5"/>
  <path d="M32 14 L44 21 L44 32 C44 42 38 48 32 50 C26 48 20 42 20 32 L20 21 Z" fill="none" stroke="#F59E0B" stroke-width="0.6" opacity="0.3"/>
  <path d="M12 10 L32 2 L52 10" fill="none" stroke="#FDE68A" stroke-width="0.8" opacity="0.5"/>
  <path d="M8 16 L32 6 L56 16" fill="none" stroke="#FDE68A" stroke-width="0.8" opacity="0.4"/>
  <path d="M6 22 L32 10 L58 22" fill="none" stroke="#FBBF24" stroke-width="0.6" opacity="0.3"/>
  <path d="M4 28 L32 14 L60 28" fill="none" stroke="#F59E0B" stroke-width="0.5" opacity="0.2"/>
  <polygon points="32,10 36.5,19 46,19 39,25 41.5,34 32,28.5 22.5,34 25,25 18,19 27.5,19" fill="url(#legendaryGem)" stroke="#9333EA" stroke-width="0.5"/>
  <polygon points="32,14 35,20 40,20 37,24 38.5,29 32,25.5 25.5,29 27,24 24,20 29,20" fill="#FEF3C7" opacity="0.5"/>
  <polygon points="32,18 34,22 37,22 35.5,24 36,27 32,25 28,27 28.5,24 27,22 30,22" fill="#FFFFFF" opacity="0.3"/>
  <polygon points="32,21 33,23 35,23 34,24.5 34.5,26 32,25 29.5,26 30,24.5 29,23 31,23" fill="#FFFFFF" opacity="0.2"/>
  <path d="M24 6 L26 2 L28 5 L30 1 L32 5 L34 1 L36 5 L38 2 L40 6" fill="url(#crownGold)" stroke="#B45309" stroke-width="0.5"/>
  <circle cx="12" cy="20" r="1.5" fill="#FDE68A" opacity="0.6"/>
  <circle cx="52" cy="20" r="1.5" fill="#FDE68A" opacity="0.6"/>
  <circle cx="16" cy="26" r="1.2" fill="#FBBF24" opacity="0.5"/>
  <circle cx="48" cy="26" r="1.2" fill="#FBBF24" opacity="0.5"/>
  <circle cx="20" cy="32" r="1" fill="#F59E0B" opacity="0.4"/>
  <circle cx="44" cy="32" r="1" fill="#F59E0B" opacity="0.4"/>
  <circle cx="24" cy="38" r="0.8" fill="#F59E0B" opacity="0.3"/>
  <circle cx="40" cy="38" r="0.8" fill="#F59E0B" opacity="0.3"/>
  <path d="M14 36 L20 34" stroke="#FDE68A" stroke-width="0.6" opacity="0.4"/>
  <path d="M50 36 L44 34" stroke="#FDE68A" stroke-width="0.6" opacity="0.4"/>
  <path d="M16 40 L22 38" stroke="#FBBF24" stroke-width="0.5" opacity="0.3"/>
  <path d="M48 40 L42 38" stroke="#FBBF24" stroke-width="0.5" opacity="0.3"/>
  <text x="32" y="50" text-anchor="middle" font-family="Arial,sans-serif" font-size="6" font-weight="bold" fill="#FEFCE8">91-100</text>
</svg>