<svg xmlns="http://www.w3.org/2000/svg" viewBox="0 0 64 64" width="64" height="64">
  <defs>
    <linearGradient id="emerald" x1="0%" y1="0%" x2="100%" y2="100%">
      <stop offset="0%" style="stop-color:#22C55E"/>
      <stop offset="100%" style="stop-color:#15803D"/>
    </linearGradient>
    <linearGradient id="gem" x1="0%" y1="0%" x2="100%" y2="100%">
      <stop offset="0%" style="stop-color:#4ADE80"/>
      <stop offset="100%" style="stop-color:#166534"/>
    </linearGradient>
  </defs>
  <path d="M32 4 L56 16 L56 36 C56 52 44 60 32 62 C20 60 8 52 8 36 L8 16 Z" fill="url(#emerald)" stroke="#14532D" stroke-width="1.5"/>
  <path d="M32 10 L50 20 L50 34 C50 46 42 54 32 56 C22 54 14 46 14 34 L14 20 Z" fill="none" stroke="#86EFAC" stroke-width="0.8" opacity="0.6"/>
  <polygon points="32,12 36,20 44,20 38,26 40,34 32,29 24,34 26,26 20,20 28,20" fill="url(#gem)" stroke="#15803D" stroke-width="0.5"/>
  <polygon points="32,16 34,21 39,21 35,25 36,30 32,27 28,30 29,25 25,21 30,21" fill="#BBF7D0" opacity="0.5"/>
  <path d="M20 22 L28 18" stroke="#86EFAC" stroke-width="0.6" opacity="0.5"/>
  <path d="M44 22 L36 18" stroke="#86EFAC" stroke-width="0.6" opacity="0.5"/>
  <path d="M18 30 L24 27" stroke="#86EFAC" stroke-width="0.6" opacity="0.5"/>
  <path d="M46 30 L40 27" stroke="#86EFAC" stroke-width="0.6" opacity="0.5"/>
  <text x="32" y="50" text-anchor="middle" font-family="Arial,sans-serif" font-size="7" font-weight="bold" fill="#ECFDF5">51-60</text>
</svg>