<svg xmlns="http://www.w3.org/2000/svg" viewBox="0 0 64 64" width="64" height="64">
  <defs>
    <linearGradient id="silver" x1="0%" y1="0%" x2="100%" y2="100%">
      <stop offset="0%" style="stop-color:#C0C0C0"/>
      <stop offset="100%" style="stop-color:#808080"/>
    </linearGradient>
  </defs>
  <path d="M32 4 L56 16 L56 36 C56 52 44 60 32 62 C20 60 8 52 8 36 L8 16 Z" fill="url(#silver)" stroke="#606060" stroke-width="1.5"/>
  <path d="M32 10 L50 20 L50 34 C50 46 42 54 32 56 C22 54 14 46 14 34 L14 20 Z" fill="none" stroke="#E0E0E0" stroke-width="0.8" opacity="0.6"/>
  <polygon points="32,16 34.5,22 41,22 36,26 38,32 32,28 26,32 28,26 23,22 29.5,22" fill="#E8E8E8" stroke="#A0A0A0" stroke-width="0.5"/>
  <text x="32" y="50" text-anchor="middle" font-family="Arial,sans-serif" font-size="7" font-weight="bold" fill="#FFFFFF">21-30</text>
</svg>