<svg xmlns="http://www.w3.org/2000/svg" viewBox="0 0 64 64" width="64" height="64">
  <defs>
    <linearGradient id="ruby" x1="0%" y1="0%" x2="100%" y2="100%">
      <stop offset="0%" style="stop-color:#EF4444"/>
      <stop offset="100%" style="stop-color:#B91C1C"/>
    </linearGradient>
    <linearGradient id="rubyGem" x1="0%" y1="0%" x2="100%" y2="100%">
      <stop offset="0%" style="stop-color:#FCA5A5"/>
      <stop offset="100%" style="stop-color:#7F1D1D"/>
    </linearGradient>
  </defs>
  <path d="M32 2 L58 15 L58 37 C58 53 45 61 32 63 C19 61 6 53 6 37 L6 15 Z" fill="url(#ruby)" stroke="#7F1D1D" stroke-width="1.5"/>
  <path d="M32 8 L52 19 L52 35 C52 47 43 55 32 57 C21 55 12 47 12 35 L12 19 Z" fill="none" stroke="#FCA5A5" stroke-width="0.8" opacity="0.6"/>
  <path d="M16 14 L32 6 L48 14" fill="none" stroke="#FCA5A5" stroke-width="0.8" opacity="0.5"/>
  <path d="M12 20 L32 10 L52 20" fill="none" stroke="#FCA5A5" stroke-width="0.8" opacity="0.4"/>
  <path d="M10 26 L32 14 L54 26" fill="none" stroke="#FCA5A5" stroke-width="0.6" opacity="0.3"/>
  <polygon points="32,13 35.5,20 43,20 37.5,25.5 39.5,33 32,28.5 24.5,33 26.5,25.5 21,20 28.5,20" fill="url(#rubyGem)" stroke="#991B1B" stroke-width="0.5"/>
  <polygon points="32,17 34.5,22 39,22 36,25 37,29 32,26 27,29 28,25 25,22 29.5,22" fill="#FEE2E2" opacity="0.4"/>
  <circle cx="16" cy="24" r="1.5" fill="#FCA5A5" opacity="0.5"/>
  <circle cx="48" cy="24" r="1.5" fill="#FCA5A5" opacity="0.5"/>
  <circle cx="20" cy="30" r="1" fill="#FCA5A5" opacity="0.4"/>
  <circle cx="44" cy="30" r="1" fill="#FCA5A5" opacity="0.4"/>
  <path d="M18 34 L24 32" stroke="#FCA5A5" stroke-width="0.6" opacity="0.4"/>
  <path d="M46 34 L40 32" stroke="#FCA5A5" stroke-width="0.6" opacity="0.4"/>
  <text x="32" y="50" text-anchor="middle" font-family="Arial,sans-serif" font-size="7" font-weight="bold" fill="#FEF2F2">71-80</text>
</svg>