<svg xmlns="http://www.w3.org/2000/svg" viewBox="0 0 64 64" width="64" height="64">
  <defs>
    <linearGradient id="platinum" x1="0%" y1="0%" x2="100%" y2="100%">
      <stop offset="0%" style="stop-color:#E5E4E2"/>
      <stop offset="100%" style="stop-color:#B0B0B0"/>
    </linearGradient>
  </defs>
  <path d="M32 4 L56 16 L56 36 C56 52 44 60 32 62 C20 60 8 52 8 36 L8 16 Z" fill="url(#platinum)" stroke="#909090" stroke-width="1.5"/>
  <path d="M32 10 L50 20 L50 34 C50 46 42 54 32 56 C22 54 14 46 14 34 L14 20 Z" fill="none" stroke="#F0F0F0" stroke-width="0.8" opacity="0.6"/>
  <path d="M20 18 L32 12 L44 18" fill="none" stroke="#F0F0F0" stroke-width="0.8" opacity="0.5"/>
  <path d="M16 24 L32 16 L48 24" fill="none" stroke="#F0F0F0" stroke-width="0.8" opacity="0.5"/>
  <polygon points="32,16 34.5,22 41,22 36,26 38,32 32,28 26,32 28,26 23,22 29.5,22" fill="#F8F8F8" stroke="#C0C0C0" stroke-width="0.5"/>
  <circle cx="20" cy="30" r="2" fill="#F0F0F0" opacity="0.4"/>
  <circle cx="44" cy="30" r="2" fill="#F0F0F0" opacity="0.4"/>
  <text x="32" y="50" text-anchor="middle" font-family="Arial,sans-serif" font-size="7" font-weight="bold" fill="#FFFFFF">41-50</text>
</svg>