<svg xmlns="http://www.w3.org/2000/svg" fill="none" viewBox="0 0 800 600"><defs><linearGradient id="a" x1="0%" x2="100%" y1="0%" y2="100%"><stop offset="0%" stop-color="#0F172A"/><stop offset="50%" stop-color="#1E1B4B"/><stop offset="100%" stop-color="#311042"/></linearGradient><linearGradient id="c" x1="0%" x2="100%" y1="0%" y2="100%"><stop offset="0%" stop-color="#2563EB"/><stop offset="100%" stop-color="#14B8A6"/></linearGradient><linearGradient id="b" x1="0%" x2="100%" y1="0%" y2="100%"><stop offset="0%" stop-color="#7C3AED"/><stop offset="100%" stop-color="#EC4899"/></linearGradient></defs><path fill="url(#a)" d="M0 0h800v600H0z"/><circle cx="400" cy="300" r="280" stroke="#2563EB" stroke-dasharray="10 15" stroke-width="1.5" opacity=".15"/><circle cx="400" cy="300" r="200" stroke="#14B8A6" opacity=".1"/><g transform="translate(180 240)"><circle cx="60" cy="60" r="50" fill="url(#b)" opacity=".8"/><circle cx="60" cy="60" r="50" stroke="#FFF" stroke-width="2"/><path fill="#FFF" d="M45 45c0-10 30-10 30 0s-7 17-15 17-15-7-15-17"/><path stroke="#22C55E" stroke-linecap="round" stroke-width="3" d="M125 50q10 10 0 20"/><path stroke="#22C55E" stroke-linecap="round" stroke-width="3" d="M135 40q15 20 0 40" opacity=".7"/><path stroke="#22C55E" stroke-linecap="round" stroke-width="3" d="M145 30q20 30 0 60" opacity=".4"/></g><g transform="translate(470 240)"><circle cx="60" cy="60" r="50" fill="url(#c)" opacity=".8"/><circle cx="60" cy="60" r="50" stroke="#FFF" stroke-width="2"/><rect width="40" height="30" x="40" y="42" fill="#FFF" rx="6"/><circle cx="50" cy="57" r="3" fill="#2563EB"/><circle cx="70" cy="57" r="3" fill="#2563EB"/><path stroke="#2563EB" stroke-linecap="round" stroke-width="2" d="M53 72h14"/><path stroke="#FFF" stroke-width="2" d="M60 30v12"/><circle cx="60" cy="28" r="3" fill="#14B8A6"/><path stroke="#3B82F6" stroke-linecap="round" stroke-width="3" d="M-5 50q-10 10 0 20"/><path stroke="#3B82F6" stroke-linecap="round" stroke-width="3" d="M-15 40q-15 20 0 40" opacity=".7"/><path stroke="#3B82F6" stroke-linecap="round" stroke-width="3" d="M-25 30q-20 30 0 60" opacity=".4"/></g><g opacity=".85" transform="translate(140 120)"><rect width="70" height="35" fill="#1E293B" stroke="#475569" stroke-width="1.5" rx="10"/><text x="35" y="22" fill="#F8FAFC" font-family="Inter, sans-serif" font-size="14" font-weight="bold" text-anchor="middle">English</text></g><g opacity=".85" transform="translate(580 140)"><rect width="80" height="35" fill="#1E293B" stroke="#475569" stroke-width="1.5" rx="10"/><text x="40" y="22" fill="#F8FAFC" font-family="Inter, sans-serif" font-size="14" font-weight="bold" text-anchor="middle">German</text></g><g opacity=".85" transform="translate(360 60)"><rect width="80" height="35" fill="#1E293B" stroke="#475569" stroke-width="1.5" rx="10"/><text x="40" y="22" fill="#F8FAFC" font-family="Inter, sans-serif" font-size="14" font-weight="bold" text-anchor="middle">Japanese</text></g><g opacity=".85" transform="translate(250 480)"><rect width="70" height="35" fill="#1E293B" stroke="#475569" stroke-width="1.5" rx="10"/><text x="35" y="22" fill="#F8FAFC" font-family="Inter, sans-serif" font-size="14" font-weight="bold" text-anchor="middle">French</text></g><g opacity=".85" transform="translate(480 460)"><rect width="80" height="35" fill="#1E293B" stroke="#475569" stroke-width="1.5" rx="10"/><text x="40" y="22" fill="#F8FAFC" font-family="Inter, sans-serif" font-size="14" font-weight="bold" text-anchor="middle">Spanish</text></g></svg>