<svg xmlns="http://www.w3.org/2000/svg" viewBox="0 0 1200 630" fill="none">
  <defs>
    <linearGradient id="fbGrad" x1="0%" y1="0%" x2="100%" y2="100%">
      <stop offset="0%" stop-color="#2563EB"/>
      <stop offset="100%" stop-color="#7C3AED"/>
    </linearGradient>
  </defs>
  <rect width="1200" height="630" fill="#0F172A"/>
  <rect width="1200" height="630" fill="url(#fbGrad)" opacity="0.15"/>
  
  <!-- Phone mockup -->
  <g transform="translate(850, 80)">
    <rect width="240" height="470" rx="24" fill="#1E293B" stroke="#475569" stroke-width="2"/>
    <rect x="8" y="8" width="224" height="454" rx="18" fill="#F8FAFC"/>
    <!-- App screen content -->
    <rect x="20" y="20" width="200" height="40" rx="8" fill="#2563EB" opacity="0.1"/>
    <text x="120" y="44" font-family="Inter, sans-serif" font-size="14" font-weight="600" fill="#2563EB" text-anchor="middle">AI Language Coach</text>
    <rect x="20" y="72" width="200" height="120" rx="8" fill="#F1F5F9"/>
    <rect x="20" y="204" width="200" height="100" rx="8" fill="#F1F5F9"/>
    <rect x="20" y="316" width="94" height="60" rx="8" fill="#2563EB" opacity="0.1"/>
    <rect x="126" y="316" width="94" height="60" rx="8" fill="#7C3AED" opacity="0.1"/>
  </g>
  
  <!-- Text content -->
  <text x="80" y="220" font-family="Inter, sans-serif" font-size="48" font-weight="700" fill="#FFFFFF">AI Language</text>
  <text x="80" y="280" font-family="Inter, sans-serif" font-size="48" font-weight="700" fill="#2563EB">Coach</text>
  <text x="80" y="330" font-family="Inter, sans-serif" font-size="20" fill="#94A3B8">Master spoken &amp; written language skills</text>
  <text x="80" y="370" font-family="Inter, sans-serif" font-size="16" fill="#64748B">AI-powered tutoring for exam preparation</text>
  
  <!-- Features -->
  <g transform="translate(80, 410)">
    <circle cx="8" cy="8" r="8" fill="#22C55E" opacity="0.2"/>
    <text x="24" y="12" font-family="Inter, sans-serif" font-size="14" fill="#94A3B8">Voice Practice</text>
    <circle cx="208" cy="8" r="8" fill="#F59E0B" opacity="0.2"/>
    <text x="224" y="12" font-family="Inter, sans-serif" font-size="14" fill="#94A3B8">IELTS Prep</text>
    <circle cx="388" cy="8" r="8" fill="#7C3AED" opacity="0.2"/>
    <text x="404" y="12" font-family="Inter, sans-serif" font-size="14" fill="#94A3B8">12 Languages</text>
  </g>
</svg>
