<svg xmlns="http://www.w3.org/2000/svg" viewBox="0 0 120 120" fill="none">
  <defs>
    <linearGradient id="aiGrad4" x1="0%" y1="0%" x2="100%" y2="100%">
      <stop offset="0%" stop-color="#2563EB"/>
      <stop offset="100%" stop-color="#7C3AED"/>
    </linearGradient>
  </defs>
  
  <!-- Pulse rings -->
  <circle cx="60" cy="60" r="58" fill="url(#aiGrad4)" opacity="0.1"/>
  <circle cx="60" cy="60" r="55" fill="url(#aiGrad4)"/>
  
  <circle cx="60" cy="52" r="35" fill="white"/>
  
  <!-- Eyes - listening (attentive) -->
  <circle cx="48" cy="48" r="5" fill="#1E293B"/>
  <circle cx="72" cy="48" r="5" fill="#1E293B"/>
  <circle cx="49.5" cy="46.5" r="2" fill="white"/>
  <circle cx="73.5" cy="46.5" r="2" fill="white"/>
  
  <!-- Slight smile -->
  <path d="M48 60 Q60 68, 72 60" stroke="#1E293B" stroke-width="3" fill="none" stroke-linecap="round"/>
  
  <!-- Sound wave indicators -->
  <path d="M10 60 Q15 50, 20 60 Q25 70, 30 60" stroke="#22C55E" stroke-width="2" fill="none" opacity="0.6"/>
  <path d="M90 60 Q95 50, 100 60 Q105 70, 110 60" stroke="#22C55E" stroke-width="2" fill="none" opacity="0.6"/>
  
  <!-- Headphones -->
  <path d="M28 45 Q28 20, 60 18 Q92 20, 92 45" stroke="#7C3AED" stroke-width="5" fill="none" stroke-linecap="round"/>
  <rect x="22" y="40" width="12" height="18" rx="6" fill="#7C3AED"/>
  <rect x="86" y="40" width="12" height="18" rx="6" fill="#7C3AED"/>
  
  <!-- Active mic indicator -->
  <circle cx="60" cy="90" r="14" fill="#22C55E" opacity="0.2"/>
  <rect x="54" y="78" width="12" height="20" rx="6" fill="white" opacity="0.9"/>
  <path d="M48 92 Q60 102, 72 92" stroke="white" stroke-width="2.5" fill="none" opacity="0.9" stroke-linecap="round"/>
</svg>